# xmcd
#
# Track frame offsets: 
#        150
#        11543
#        21641
#        32679
#        43738
#        54024
#        64987
#        79500
#        96392
#        107695
#        115159
#        130458
#        135420
#        147508
#        159786
#        169783
#        182328
#        191985
#        205412
#        212522
#        226227
#        242782
#        257230
#
# Disc length: 3602 seconds
#
# Revision: 1
# Processed by: cddbd v1.5.2PL0 Copyright (c) Steve Scherf et al.
# Submitted via: ExactAudioCopy v0.99pb4
#
DISCID=420e1017
DTITLE=Various Artist - Country's Most Wanted Vol 1
DYEAR=1900
DGENRE=Country
TTITLE0=Faron Young - Wine Me Up
TTITLE1=George Jones - The Race Is On
TTITLE2=Moe Bandy - It's A Cheating Situation
TTITLE3=Jimmy Dean - Nine Pound Hammer
TTITLE4=Connie Smith - Because I Love You Thats Why
TTITLE5=Porter Wagoner - I Thought I Heard You Call My Name
TTITLE6=Tammy Wynette - Til I Can Make It On My Own
TTITLE7=Texas Williams - Deck Of Cards
TTITLE8=Helen Cornelius - Fools
TTITLE9=Rex Allen - Highways
TTITLE10=Tom T. Hall - Old Dogs Children and Watermelon Wine
TTITLE11=Tammy Wynette - Your Good Girl's Gonna Go Bad
TTITLE12=Lee Greenwood - You've Got A Good Love Comin
TTITLE13=Mickey Gilley - Don't The Girls All Get Prettier At Closing T
TTITLE13=ime
TTITLE14=Freddy Fender - Before The Next Tear Drop Falls
TTITLE15=Tanya Tucker - San Antonio Stroll
TTITLE16=Porter Wagoner - Lousiana Saturday Night
TTITLE17=Faron Young - This Little Girl Of Mine
TTITLE18=Jummy Dean - The Last Letter
TTITLE19=Connie Smith - Did We Have To Come This Far To Say Goodbye
TTITLE20=Bobby Bare - Marie Laveau
TTITLE21=George Jones - Who's Gone Fill Their Shoes
TTITLE22=Charlie Rich - Behind Closed Doors
EXTD=
EXTT0=
EXTT1=
EXTT2=
EXTT3=
EXTT4=
EXTT5=
EXTT6=
EXTT7=
EXTT8=
EXTT9=
EXTT10=
EXTT11=
EXTT12=
EXTT13=
EXTT14=
EXTT15=
EXTT16=
EXTT17=
EXTT18=
EXTT19=
EXTT20=
EXTT21=
EXTT22=
PLAYORDER=
